<?xml version="1.0" encoding="UTF-8"?>
<svg width="200px" height="200px" viewBox="0 0 200 200" version="1.1" xmlns="http://www.w3.org/2000/svg">
    <g stroke="none" stroke-width="1" fill="none" fill-rule="evenodd">
        <g transform="translate(20, 40)">
            <!-- Folder Back -->
            <path d="M10,0 L60,0 L80,20 L150,20 C155.522847,20 160,24.4771525 160,30 L160,120 C160,125.522847 155.522847,130 150,130 L10,130 C4.4771525,130 0,125.522847 0,120 L0,10 C0,4.4771525 4.4771525,0 10,0 Z" fill="#E3F2FD"/>
            
            <!-- Folder Front -->
            <path d="M0,30 L160,30 L160,120 C160,125.522847 155.522847,130 150,130 L10,130 C4.4771525,130 0,125.522847 0,120 L0,30 Z" fill="#90CAF9"/>
            
            <!-- Decorative Lines -->
            <g transform="translate(20, 60)" stroke="#64B5F6" stroke-width="2" stroke-linecap="round">
                <line x1="0" y1="0" x2="120" y2="0"/>
                <line x1="0" y1="20" x2="80" y2="20"/>
                <line x1="0" y1="40" x2="100" y2="40"/>
            </g>
        </g>
    </g>
</svg> 